<svg xmlns="http://www.w3.org/2000/svg" viewBox="0 0 865.82 332.67"><defs><style>.cls-1{fill:#b3b3b3;}.cls-2{fill:none;stroke:#fff;stroke-miterlimit:3.86;stroke-width:4.65px;}.cls-3{fill:#1d1d1b;}.cls-4{font-size:12px;font-family:MyriadPro-Regular, Myriad Pro;}</style></defs><g id="Layer_2" data-name="Layer 2"><g id="Layer_1-2" data-name="Layer 1"><path class="cls-1" d="M244.32,80.87l-7.3,2.3-200.9,63.3-5.6,1.8-3.6,1.1-1.8.5-1.6.6-2.4.7-1.9.7-1.6.8-.9.5-2,1.1-2.5,1.8-1.6,1.4-1.1,1.1-1.9,2.3-1,1.6-1.2,1.9-.6,1.5-1,2.5-.4.9,1.5-6.7L8,148.27l3.1-14,4.9-21.8,3.2-14.7,3-13.5.5-2.2.5-2.1.3-1.4.4-1.1.6-1.9.7-1.6.8-1.3.5-1.2.7-.9.4-.7,1-1.3,1.1-1.2,1.2-1.3.8-.7,1.2-1,1.3-1,1.8-1.1,1.1-.6,1-.6,1.2-.5,12.1-3.8,10.3-3.4,8.9-2.9,32.1-9.9,85.5-27,12.9-4.1,11.3-3.7,5.6-1.6,3.3-1,1.7-.3,1.7-.2,1.9-.4h1.9l1.9.2,1.9.2,1.5.3,1.4.4,2.2.6,2,.8,1.8.9,1.5.9,1.4,1,1.4,1.1,1.3,1.2.8.8,1.4,1.5,1.3,1.8,1.3,1.9.8,1.7.9,2.2.5,1.5.5,1.5.2,1.1.3,1.7.2,1.3v5l-.2,1.2-.3,1.8-.3,1.7-1.1,5Z"/><path class="cls-1" d="M203.82,263.57l34.3,31.4,1,.9.9.7.8.6,1.3.9.9.6,1.3.7,1.7.7,1.4.6,1,.3,1.7.5,1.3.3,1.4.3,1.4.1,1.5.1h1.6l1.5-.1,1.1-.1,1.1-.2,1.3-.2.8-.2-4.7,1.5-8,2.6-10.6,3.3-10.1,3.2-11,3.5-20.4,6.4-18,5.6-1.7.6-1.5.5-1.6.5-2.2.5-2.4.5-2,.2h-3.5l-1.7-.2-1.9-.3-1.4-.3-1.3-.5-1.1-.3-1.4-.6-1.9-.9-1.7-.9-.9-.7-1.7-1.2-1.5-1.3-2.3-2.1-6.9-6.4L16.62,202l-3.6-3.3-1.7-1.6-.8-.7-.9-1-1.1-1.2-1.1-1.4L6,190.67l-1.4-2.8-.7-1.9-.7-2.3-.5-2.3-.3-2.9-.1-2.7.2-1.9.4-2.3.6-2.6.9-2.4,1.2-2.6,1.5-2.3,1.6-2.1,1.6-1.8,1.3-1.2,1.5-1.1,1.1-.9,1.2-.8,1.9-.9L19,152l1.5-.6,2.5-.8,4.6-1.4,3.8-1.2,8.8-2.8,8.4-2.6,8.6-2.8,7.4-2.2,1.2-.5Z"/><path class="cls-1" d="M246.82,9.87l1.6,1.7,1.4,1.6,1.9,3,1.2,2.5.4,1.1.8,2.3.6,2.7L255,27v4.2l-.2,1.9-.2,1.7-.7,2.9L226.22,163l-22.4,100.6,30.1,27.6,5.2,4.7,2.7,1.9,2.4,1.5,2.8,1.2,2.7.9,2.6.6,2.7.3h3l2.4-.3,1.9-.3,3-.8,2.4-.89,2.7-1.5,2.4-1.61,2.8-2.39,1.8-1.9,1.5-2.21,1.3-2.1,1.6-3.4,1-3.2,6.1-27.6,10.5-47.3,12.4-55.6,11-49.4.4-2.3.8-4.1.1-3-.1-2.9-.4-2.1-.5-2.2-.7-2.3-.9-2.1-1.4-2.5-1.6-2.2-2.2-2.6-22.5-20.6-29.6-27.1-12.5-11.5Z"/><path class="cls-2" d="M3,171.07l20.2-91.2a26.47,26.47,0,0,1,6.5-12.5,26.78,26.78,0,0,1,11.7-7.5L220,3.57a27,27,0,0,1,34.5,31.7l-50.6,228.2m40.4-182.6-223,70.3a28,28,0,0,0-11.9,7.5,27,27,0,0,0,1.7,38.2l138,126.4a26.92,26.92,0,0,0,26.4,5.8l88.6-27.9M65.82,137.07l172.5,158.1a27,27,0,0,0,38.2-1.7A27.9,27.9,0,0,0,283,281l40.6-183a26.7,26.7,0,0,0-8.2-25.4l-69-63.2"/><path class="cls-3" d="M172.82,135.27h.3l3.2,27.4H158Zm-41,51.7h13.1l7.8-14.4h25.2l1.8,14.4h11.9l-9.7-62.9h-13.1Zm64.7,0H208l4.9-22.1c1.6-6.2,3.9-16,11.6-16a5.29,5.29,0,0,1,5.3,5.6c0,2.8-1,7.1-1.6,9.9l-5,22.6h11.4l4.9-22.1c1.6-6.3,3.7-16,11.6-16a5.29,5.29,0,0,1,5.3,5.6c0,2.8-1,7.1-1.6,9.9l-5,22.6h11.4l5-22.2a58.3,58.3,0,0,0,2.2-12.6c.1-7-5.4-12.7-12-12.7-6.1,0-12.6,2.8-15.6,8.8h-.2c-.5-5.6-5.8-8.8-11-8.8a15.93,15.93,0,0,0-13.6,7.3h-.2l1.1-6.2h-10.7c-.3,1.4-.7,3.3-1,5.1l-8.7,41.3Zm78.2,0h11.4l4.9-22.1c1.6-6.2,3.9-16,11.6-16a5.29,5.29,0,0,1,5.3,5.6c0,2.8-1,7.1-1.6,9.9l-5,22.6h11.4l4.9-22.1c1.6-6.3,3.7-16,11.6-16a5.29,5.29,0,0,1,5.3,5.6c0,2.8-1,7.1-1.6,9.9l-5,22.6h11.4l5-22.2a58.3,58.3,0,0,0,2.2-12.6c.1-7-5.4-12.7-12-12.7-6.1,0-12.6,2.8-15.6,8.8h-.2c-.5-5.6-5.8-8.8-11-8.8a15.93,15.93,0,0,0-13.6,7.3h-.2l1.1-6.2h-10.7c-.3,1.4-.7,3.3-1,5.1l-8.6,41.3Zm120.9-19.5a59.15,59.15,0,0,0,1.3-10.4c.2-11.8-6.9-17.7-17.8-17.7-14.5,0-25.3,13.9-25.6,28.3-.2,13.8,8.2,20.3,20.9,20.3a48.76,48.76,0,0,0,14.1-2.6l1.6-9.5a31,31,0,0,1-13.6,3.3c-7.9,0-12.2-3.2-12-11.7Zm-29.3-8.3c2.3-6.4,5.5-10.9,12.6-10.9,4.8,0,7.2,2.8,7.1,7.7a17.33,17.33,0,0,1-.3,3.2Zm34.4,27.8h11.5l4.5-20.8c1.6-7.5,5.7-15.1,13.8-15.1a15.59,15.59,0,0,1,4.4.7l2.6-11.8a16.07,16.07,0,0,0-4.4-.5c-5.3,0-11,4.8-13.2,9.8h-.2l1.7-8.7h-11c-.4,2.2-.8,4.2-1.1,6.2l-8.6,40.2Zm59.2,0h9.7c1.2-8.7,5.9-26.9,6-33.1.2-10.9-8.1-14.3-16.9-14.3a43.31,43.31,0,0,0-15,2.8l-1.8,9.6a32.39,32.39,0,0,1,14.5-3.6c4,0,8.8,1.4,8.7,6a13.28,13.28,0,0,1-.4,4h-4c-10.8,0-27.1,1.2-27.3,16.5-.1,8.6,5.4,13.2,13.4,13.2,6.3,0,10.3-3,14.3-8.2h.2l-1.4,7.1Zm-15.6-12.6c.1-7.8,9.4-8.8,15-8.8h4c-1.9,7.5-4.7,13.7-13.2,13.7C447.12,179.17,444.32,177.57,444.32,174.37Zm62.3,12.6h9.7c1.2-8.7,5.9-26.9,6-33.1.2-10.9-8.1-14.3-16.9-14.3a43.31,43.31,0,0,0-15,2.8l-1.8,9.6a32.39,32.39,0,0,1,14.5-3.6c4,0,8.8,1.4,8.7,6a13.28,13.28,0,0,1-.4,4h-4c-10.8,0-27.1,1.2-27.3,16.5-.1,8.6,5.4,13.2,13.4,13.2,6.3,0,10.3-3,14.3-8.2h.2ZM491,174.37c.1-7.8,9.4-8.8,15-8.8h4c-1.9,7.5-4.7,13.7-13.2,13.7C493.82,179.17,491,177.57,491,174.37Zm36.8,12.6h11.5l14.8-67.6h-11.5Zm47.5,0h17c8.9,0,28.1-1.4,28.4-19.5.1-6.8-2.7-12.2-9.4-13.2v-.2a15.64,15.64,0,0,0,13-15c.2-11.4-8.5-15-17.8-15h-17.7Zm17.6-28.1h3.9c6.4,0,12.2,1,12.1,7.6-.2,9.7-8.4,10.6-15.8,10.6H589l3.9-18.2Zm5.4-24.9h4.2c4.5,0,10,.3,9.9,6.3-.1,7.4-6.8,9.2-12.8,9.2h-4.7l3.4-15.5Zm71,33.5a59.15,59.15,0,0,0,1.3-10.4c.2-11.8-6.9-17.7-17.8-17.7-14.5,0-25.3,13.9-25.6,28.3-.2,13.8,8.2,20.3,20.9,20.3a48.76,48.76,0,0,0,14.1-2.6l1.6-9.5a31,31,0,0,1-13.6,3.3c-7.9,0-12.2-3.2-12-11.7Zm-29.4-8.3c2.3-6.4,5.5-10.9,12.6-10.9,4.8,0,7.2,2.8,7.1,7.7a17.33,17.33,0,0,1-.3,3.2Zm33.6,27.8H685l14.8-67.6h-11.5Zm26.3-37.6h8.3l-3.5,15.7a51.29,51.29,0,0,0-1.6,10.8c-.2,8.9,5.3,12.2,13.1,12.2a26.94,26.94,0,0,0,6.2-1.1l2.1-9.4a15.49,15.49,0,0,1-5.6,1.1c-2.6,0-4.3-1.7-4.3-4.5a17.49,17.49,0,0,1,.6-4.5l4.5-20.3h10.3l2-8.8h-10.3l3.1-13.8-12.4,4.2-2.1,9.5h-8.3l-2.1,8.9Zm74.5,18.1a59.15,59.15,0,0,0,1.3-10.4c.2-11.8-6.9-17.7-17.8-17.7-14.5,0-25.3,13.9-25.6,28.3-.2,13.8,8.2,20.3,20.9,20.3a48.76,48.76,0,0,0,14.1-2.6l1.6-9.5a31,31,0,0,1-13.6,3.3c-7.9,0-12.2-3.2-12-11.7Zm-29.4-8.3c2.3-6.4,5.5-10.9,12.6-10.9,4.8,0,7.2,2.8,7.1,7.7a17.33,17.33,0,0,1-.3,3.2Zm74.5-17.9a38.38,38.38,0,0,0-11.4-1.8c-15.8,0-26.2,12.3-26.5,28.6-.2,12,7,20,18.4,20a24,24,0,0,0,11.1-2.2l1.5-9.5a22,22,0,0,1-9.4,2.3c-7.9,0-9.7-6-9.5-12.1.2-8.7,5.4-17.7,14.6-17.7a14.73,14.73,0,0,1,8.3,2.3l2.9-9.9Zm-.8,45.7h11.5l5.1-23.3c1.6-6.9,4.6-14.8,12.6-14.8,3.7,0,6.2,2.6,6.1,6.5a50.38,50.38,0,0,1-1.5,9.7l-4.7,21.9h11.5l5-22.5c.6-2.9,1.6-6.6,1.6-10.1.2-9.2-5.5-14.9-14.1-14.9-5,0-9.4,2.5-12.6,5.6H839l5.9-25.7h-11.5Z"/><text class="cls-4" transform="translate(408.76 169.4)">B3B3B3</text></g></g></svg>