<?xml version="1.0" encoding="utf-8"?>
<!-- Generator: Adobe Illustrator 26.0.3, SVG Export Plug-In . SVG Version: 6.00 Build 0)  -->
<svg version="1.1" id="Layer_1" xmlns="http://www.w3.org/2000/svg" xmlns:xlink="http://www.w3.org/1999/xlink" x="0px" y="0px"
	 viewBox="0 0 130.3 34.7" style="enable-background:new 0 0 130.3 34.7;" xml:space="preserve">
<style type="text/css">
	.st0{fill:#B3B3B3;}
	.st1{fill:none;}
	.st2{fill:#FFFFFF;}
</style>
<g id="Layer_2_00000166667357492341616430000003442563357067443590_">
	<g id="Layer_1-2">
		<g id="Layer_2-2">
			<g id="Vrstva_1">
				<path class="st0" d="M65.2,34.7c38.3,0,53.4-3.5,54-3.7c7.5-1.6,12.4-8.9,10.8-16.5c-1.1-5.4-5.4-9.7-10.8-10.8
					c-0.6-0.1-15.7-3.7-54-3.7s-53.4,3.5-54,3.7c-7.5,1.9-11.9,9.7-10,17.1c1.3,4.9,5.1,8.7,10,10.2C11.8,31.1,26.9,34.7,65.2,34.7"
					/>
				<path class="st1" d="M0,0h130.3v34.7H0V0z"/>
				<path class="st2" d="M11.4,29.8c-6.9-1.4-11.4-8.1-10-15c1-5,4.9-9,10-10C12,4.7,27,1.2,65.2,1.2s53.2,3.5,53.8,3.7
					c6.9,1.4,11.4,8.1,10,15c-1,5-4.9,9-10,10c-0.6,0.1-15.6,3.7-53.8,3.7S12,30,11.4,29.8"/>
				<path class="st0" d="M65.2,31.9c38.4,0,53.4-3.6,53.4-3.6c6.1-1.2,10-7.1,8.8-13.2c-0.9-4.5-4.4-8-8.8-8.8c0,0-15-3.6-53.4-3.6
					S11.7,6.3,11.7,6.3c-6.1,1.2-10,7.1-8.8,13.2c0.9,4.5,4.4,8,8.8,8.8C11.7,28.4,26.7,32,65.2,31.9"/>
				<path class="st2" d="M16,9h17.4v5.3l-5.7-0.1v11.3h-6V14.2L16,14.4V9"/>
				<path class="st2" d="M57.8,9h5.9l-0.1,7.1h0.1c0.2-0.7,0.5-1.3,0.8-1.9L67.4,9H74l-5.2,8l5.7,8.4h-7l-2.9-5
					c-0.4-0.6-0.8-1.2-1-1.9h-0.1l0.1,6.9h-5.8V9 M113.5,9l-7.2,11.4l0.1,0.1c0.5,0,1-0.1,1.4-0.1h5.8v5.1H96.6l6-9.6
					c0.5-0.7,0.9-1.4,1.5-2H104c-0.5,0.1-0.9,0.2-1.4,0.2h-5V9H113.5 M44.6,20.4c1.7,0,3.1-1.4,3.1-3.1c0-1.7-1.4-3.1-3.1-3.1
					c-1.7,0-3.1,1.4-3.1,3.1C41.5,19,42.9,20.4,44.6,20.4C44.6,20.4,44.6,20.4,44.6,20.4L44.6,20.4 M35.6,17.3c-0.1-5,3.9-9,8.9-9.1
					c5-0.1,9,3.9,9.1,8.9c0.1,5-3.9,9-8.9,9.1h-0.1C39.7,26.2,35.7,22.2,35.6,17.3C35.6,17.3,35.6,17.3,35.6,17.3L35.6,17.3
					L35.6,17.3z M85.3,20.4c1.7,0,3.1-1.4,3.1-3.1c0-1.7-1.4-3.1-3.1-3.1c-1.7,0-3.1,1.4-3.1,3.1C82.2,19,83.6,20.4,85.3,20.4
					C85.3,20.4,85.3,20.4,85.3,20.4 M76.3,17.3c-0.1-5,3.9-9,8.9-9.1c5-0.1,9,3.9,9.1,8.9c0.1,5-3.9,9-8.9,9.1h-0.1
					C80.4,26.2,76.4,22.2,76.3,17.3C76.3,17.3,76.3,17.3,76.3,17.3L76.3,17.3L76.3,17.3z M120.3,16.9c0.3,0,0.6,0,0.6-0.3
					s-0.3-0.3-0.6-0.3h-0.7v0.6H120.3 M121.6,18.7h-0.8l-0.7-1.3h-0.5v1.3H119v-3.1h1.5c0.7,0,1,0.2,1,0.9c0,0.4-0.3,0.8-0.7,0.8
					l0,0L121.6,18.7z M122.4,17.2c0-1.2-1-2.2-2.2-2.2c-1.2,0-2.2,1-2.2,2.2s1,2.2,2.2,2.2l0,0C121.4,19.4,122.4,18.4,122.4,17.2
					C122.4,17.2,122.4,17.2,122.4,17.2L122.4,17.2z M117.2,17.2c0-1.7,1.3-3,2.9-3.1s3,1.3,3.1,2.9c0,1.7-1.3,3-2.9,3.1h-0.1
					C118.6,20.2,117.3,18.9,117.2,17.2L117.2,17.2z"/>
			</g>
		</g>
	</g>
</g>
</svg>
