<svg xmlns="http://www.w3.org/2000/svg" xmlns:xlink="http://www.w3.org/1999/xlink" viewBox="0 0 793.83 696.65"><defs><style>.cls-1,.cls-10,.cls-11,.cls-12,.cls-13,.cls-14,.cls-15,.cls-3,.cls-39,.cls-4,.cls-5,.cls-54,.cls-6,.cls-7,.cls-8,.cls-9{fill:none;}.cls-2,.cls-21{opacity:0.5;}.cls-10,.cls-11,.cls-12,.cls-13,.cls-14,.cls-15,.cls-3,.cls-39,.cls-4,.cls-5,.cls-54,.cls-6,.cls-7,.cls-8,.cls-9{stroke-miterlimit:10;}.cls-10,.cls-11,.cls-12,.cls-13,.cls-14,.cls-15,.cls-3,.cls-4,.cls-5,.cls-6,.cls-7,.cls-8,.cls-9{stroke-width:1.47px;}.cls-3{stroke:url(#linear-gradient);}.cls-4{stroke:url(#linear-gradient-2);}.cls-5{stroke:url(#linear-gradient-3);}.cls-6{stroke:url(#linear-gradient-4);}.cls-7{stroke:url(#linear-gradient-5);}.cls-8{stroke:url(#linear-gradient-6);}.cls-9{stroke:url(#linear-gradient-7);}.cls-10{stroke:url(#linear-gradient-8);}.cls-11{stroke:url(#linear-gradient-9);}.cls-12{stroke:url(#linear-gradient-10);}.cls-13{stroke:url(#linear-gradient-11);}.cls-14{stroke:url(#linear-gradient-12);}.cls-15,.cls-54{stroke:#de8026;}.cls-16{fill:url(#linear-gradient-13);}.cls-17{fill:url(#linear-gradient-14);}.cls-18{fill:url(#linear-gradient-15);}.cls-19{fill:url(#linear-gradient-16);}.cls-20{fill:url(#linear-gradient-17);}.cls-21,.cls-35{fill:#de8026;}.cls-21,.cls-27{isolation:isolate;}.cls-22{fill:url(#linear-gradient-18);}.cls-23{fill:#c2c2c2;}.cls-24{fill:#888;}.cls-25{fill:url(#linear-gradient-19);}.cls-26{fill:url(#linear-gradient-20);}.cls-27{font-size:6.85px;fill:#fff;font-family:SpaceMono-Bold, Space Mono;font-weight:700;}.cls-28{fill:url(#linear-gradient-21);}.cls-29{fill:#f1f0f0;}.cls-30{fill:url(#linear-gradient-22);}.cls-31{fill:#bababa;}.cls-32{fill:#ccc;}.cls-33{fill:#b96a28;}.cls-34{fill:url(#linear-gradient-23);}.cls-36{fill:url(#linear-gradient-24);}.cls-37{fill:url(#linear-gradient-25);}.cls-38{clip-path:url(#clip-path);}.cls-39{stroke:#e5e5e5;stroke-width:1.19px;}.cls-40{fill:url(#linear-gradient-26);}.cls-41{fill:url(#linear-gradient-27);}.cls-42{fill:#2b2b36;}.cls-43{fill:url(#linear-gradient-28);}.cls-44{fill:url(#linear-gradient-29);}.cls-45{fill:url(#linear-gradient-30);}.cls-46{fill:url(#linear-gradient-31);}.cls-47{fill:url(#linear-gradient-32);}.cls-48{fill:url(#linear-gradient-33);}.cls-49{fill:url(#linear-gradient-34);}.cls-50{fill:url(#linear-gradient-35);}.cls-51{fill:url(#linear-gradient-36);}.cls-52{fill:url(#linear-gradient-37);}.cls-53{fill:url(#linear-gradient-38);}.cls-54{stroke-width:1.16px;stroke-dasharray:5.1;}.cls-55{fill:url(#linear-gradient-39);}</style><linearGradient id="linear-gradient" y1="64.47" x2="446.94" y2="64.47" gradientTransform="matrix(1, 0, 0, -1, 0, 631.29)" gradientUnits="userSpaceOnUse"><stop offset="0" stop-color="#e2887f" stop-opacity="0"/><stop offset="1" stop-color="#e2887f"/></linearGradient><linearGradient id="linear-gradient-2" x1="48.46" y1="92.36" x2="495.4" y2="92.36" gradientTransform="matrix(1, 0, 0, -1, 0, 631.29)" gradientUnits="userSpaceOnUse"><stop offset="0" stop-color="#ccc" stop-opacity="0"/><stop offset="1" stop-color="#ccc"/></linearGradient><linearGradient id="linear-gradient-3" x1="96.92" y1="120.26" x2="543.86" y2="120.26" xlink:href="#linear-gradient-2"/><linearGradient id="linear-gradient-4" x1="145.38" y1="148.15" x2="592.33" y2="148.15" xlink:href="#linear-gradient-2"/><linearGradient id="linear-gradient-5" x1="193.85" y1="176.05" x2="640.79" y2="176.05" xlink:href="#linear-gradient-2"/><linearGradient id="linear-gradient-6" x1="242.3" y1="203.94" x2="689.25" y2="203.94" xlink:href="#linear-gradient-2"/><linearGradient id="linear-gradient-7" x1="290.77" y1="231.84" x2="737.71" y2="231.84" xlink:href="#linear-gradient-2"/><linearGradient id="linear-gradient-8" x1="-9980.79" y1="77.61" x2="-9582.37" y2="77.61" gradientTransform="translate(-9186.95 631.29) rotate(180)" xlink:href="#linear-gradient-2"/><linearGradient id="linear-gradient-9" x1="-9932.32" y1="105.51" x2="-9533.91" y2="105.51" gradientTransform="translate(-9186.95 631.29) rotate(180)" xlink:href="#linear-gradient-2"/><linearGradient id="linear-gradient-10" x1="-9883.86" y1="133.4" x2="-9485.45" y2="133.4" gradientTransform="translate(-9186.95 631.29) rotate(180)" xlink:href="#linear-gradient-2"/><linearGradient id="linear-gradient-11" x1="-9835.4" y1="161.3" x2="-9436.98" y2="161.3" gradientTransform="translate(-9186.95 631.29) rotate(180)" xlink:href="#linear-gradient-2"/><linearGradient id="linear-gradient-12" x1="-9786.94" y1="189.19" x2="-9388.52" y2="189.19" gradientTransform="translate(-9186.95 631.29) rotate(180)" xlink:href="#linear-gradient-2"/><linearGradient id="linear-gradient-13" x1="5543.06" y1="4318.96" x2="5561.91" y2="4318.96" gradientTransform="matrix(-1, 0, 0, 1, 5853.97, -3916.89)" gradientUnits="userSpaceOnUse"><stop offset="0" stop-color="#de8026"/><stop offset="1" stop-color="#b96a28"/></linearGradient><linearGradient id="linear-gradient-14" x1="-453.19" y1="2512.43" x2="-434.34" y2="2512.43" gradientTransform="matrix(0.87, -0.5, 1, 0.58, -1592.59, -1604.39)" xlink:href="#linear-gradient-13"/><linearGradient id="linear-gradient-15" x1="-453.19" y1="2521.58" x2="-434.34" y2="2521.58" gradientTransform="matrix(0.87, -0.5, 1, 0.58, -1592.59, -1604.39)" xlink:href="#linear-gradient-13"/><linearGradient id="linear-gradient-16" x1="5354.8" y1="-191.77" x2="5370.19" y2="-191.77" gradientTransform="matrix(-0.75, -0.43, 0, -1.33, 4178, 2487.21)" xlink:href="#linear-gradient-13"/><linearGradient id="linear-gradient-17" x1="5354.8" y1="-68.51" x2="5370.19" y2="-68.51" gradientTransform="matrix(-0.75, -0.43, 0, -1.33, 4178, 2487.21)" xlink:href="#linear-gradient-13"/><linearGradient id="linear-gradient-18" x1="158.12" y1="327.84" x2="169.3" y2="227.69" gradientTransform="matrix(1, 0, 0, -1, 0, 631.29)" gradientUnits="userSpaceOnUse"><stop offset="0" stop-color="#d4d4d4"/><stop offset="1" stop-color="#333"/></linearGradient><linearGradient id="linear-gradient-19" x1="108.48" y1="294.41" x2="200.75" y2="255.31" gradientTransform="matrix(1, 0, 0, -1, 0, 631.29)" gradientUnits="userSpaceOnUse"><stop offset="0" stop-color="#ccc"/><stop offset="1" stop-color="#fff"/></linearGradient><linearGradient id="linear-gradient-20" x1="-258.02" y1="-775.44" x2="-240.18" y2="-775.44" gradientTransform="matrix(0.5, 0.87, 0.58, -1, 730.6, -170.64)" gradientUnits="userSpaceOnUse"><stop offset="0.15" stop-color="#24aa4a"/><stop offset="1" stop-color="#188340"/></linearGradient><linearGradient id="linear-gradient-21" x1="147.87" y1="302.4" x2="159.89" y2="302.4" gradientTransform="matrix(1, 0, 0, -1, 0, 631.29)" gradientUnits="userSpaceOnUse"><stop offset="0.15" stop-color="#de3926"/><stop offset="1" stop-color="#a71e22"/></linearGradient><linearGradient id="linear-gradient-22" x1="630.85" y1="281.7" x2="526.22" y2="369.5" gradientTransform="matrix(1, 0, 0, -1, 0, 631.29)" gradientUnits="userSpaceOnUse"><stop offset="0.04" stop-color="#989898"/><stop offset="0.97" stop-color="#e6e6e5"/></linearGradient><linearGradient id="linear-gradient-23" x1="392.49" y1="335.22" x2="527.9" y2="335.22" gradientTransform="matrix(1, 0, 0, -1, 0, 631.29)" gradientUnits="userSpaceOnUse"><stop offset="0.03" stop-color="#e3a55b"/><stop offset="0.21" stop-color="#d58a2f"/><stop offset="1" stop-color="#de8026"/></linearGradient><linearGradient id="linear-gradient-24" x1="372.84" y1="107.39" x2="357.6" y2="65.5" gradientTransform="matrix(1, 0, 0, -1, 0, 631.29)" gradientUnits="userSpaceOnUse"><stop offset="0.03" stop-color="#e6e6e5"/><stop offset="0.96" stop-color="#989898"/></linearGradient><linearGradient id="linear-gradient-25" x1="542" y1="64.64" x2="526.78" y2="106.43" xlink:href="#linear-gradient-22"/><clipPath id="clip-path"><polygon class="cls-1" points="450.99 589.01 279.45 489.95 446.26 392.67 617.79 491.73 450.99 589.01"/></clipPath><linearGradient id="linear-gradient-26" x1="394.36" y1="112.1" x2="387.56" y2="93.4" xlink:href="#linear-gradient-24"/><linearGradient id="linear-gradient-27" x1="446.44" y1="93.13" x2="439.64" y2="111.81" xlink:href="#linear-gradient-22"/><linearGradient id="linear-gradient-28" x1="395.29" y1="141.48" x2="434.62" y2="249.56" xlink:href="#linear-gradient-22"/><linearGradient id="linear-gradient-29" x1="352.96" y1="255.63" x2="480.17" y2="255.63" xlink:href="#linear-gradient-22"/><linearGradient id="linear-gradient-30" x1="345.25" y1="255.61" x2="487.91" y2="255.61" gradientTransform="matrix(1, 0, 0, -1, 0, 631.29)" xlink:href="#linear-gradient-13"/><linearGradient id="linear-gradient-31" x1="410.91" y1="246.79" x2="410.91" y2="329.17" gradientTransform="matrix(0.01, 1, 1, -0.01, 126.4, -69.47)" xlink:href="#linear-gradient-13"/><linearGradient id="linear-gradient-32" x1="352.96" y1="299.34" x2="480.17" y2="299.34" xlink:href="#linear-gradient-22"/><linearGradient id="linear-gradient-33" x1="480.16" y1="339.28" x2="352.97" y2="339.28" gradientTransform="matrix(0.01, 1, 1, -0.01, 75.05, -122.72)" xlink:href="#linear-gradient-22"/><linearGradient id="linear-gradient-34" x1="392.35" y1="352.62" x2="440.8" y2="352.62" xlink:href="#linear-gradient-22"/><linearGradient id="linear-gradient-35" x1="440.79" y1="384.5" x2="392.35" y2="384.5" gradientTransform="matrix(0.01, 1, 1, -0.01, 29.83, -167.69)" xlink:href="#linear-gradient-22"/><linearGradient id="linear-gradient-36" x1="484.52" y1="624.74" x2="504.44" y2="570.01" gradientTransform="matrix(1, 0, 0, -1, 0, 631.29)" gradientUnits="userSpaceOnUse"><stop offset="0" stop-color="#fff"/><stop offset="0.32" stop-color="#f0efef"/><stop offset="0.96" stop-color="#c7c6c5"/><stop offset="1" stop-color="#c3c3c3"/></linearGradient><linearGradient id="linear-gradient-37" x1="435.26" y1="628.58" x2="466.58" y2="542.52" xlink:href="#linear-gradient-36"/><linearGradient id="linear-gradient-38" x1="402.87" y1="581.01" x2="419.88" y2="534.25" xlink:href="#linear-gradient-36"/><linearGradient id="linear-gradient-39" x1="-537.17" y1="2627.27" x2="-518.32" y2="2627.27" gradientTransform="matrix(0.87, -0.5, 1, 0.58, -1592.59, -1604.39)" xlink:href="#linear-gradient-13"/></defs><g id="Layer_2" data-name="Layer 2"><g id="Artwork"><g id="Front"><g id="Layer_2-2" data-name="Layer 2"><g id="Layer_3" data-name="Layer 3"><g class="cls-2"><line class="cls-3" x1="0.37" y1="438.17" x2="446.58" y2="695.48"/><line class="cls-4" x1="48.83" y1="410.27" x2="495.03" y2="667.58"/><line class="cls-5" x1="97.29" y1="382.38" x2="543.5" y2="639.69"/><line class="cls-6" x1="145.75" y1="354.48" x2="591.96" y2="611.79"/><line class="cls-7" x1="194.21" y1="326.59" x2="640.42" y2="583.9"/><line class="cls-8" x1="242.67" y1="298.69" x2="688.88" y2="556"/><line class="cls-9" x1="291.13" y1="270.8" x2="737.34" y2="528.11"/><line class="cls-10" x1="793.47" y1="438.12" x2="395.78" y2="669.24"/><line class="cls-11" x1="745" y1="410.23" x2="347.32" y2="641.34"/><line class="cls-12" x1="696.54" y1="382.33" x2="298.86" y2="613.45"/><line class="cls-13" x1="648.08" y1="354.44" x2="250.4" y2="585.55"/><line class="cls-14" x1="599.62" y1="326.54" x2="201.94" y2="557.66"/></g><polyline class="cls-15" points="156.23 448.46 156.23 528.17 446.58 695.8 736.92 528.17"/><polyline class="cls-15" points="365.71 71.97 156.23 192.92 156.23 275.04"/><polyline class="cls-15" points="736.92 528.17 736.92 192.92 527.44 71.97"/><polygon class="cls-16" points="301.48 393.91 292.05 410.24 310.91 410.24 301.48 393.91"/><polygon class="cls-17" points="525.61 71.3 547.82 74.69 531.5 84.12 525.61 71.3"/><polygon class="cls-18" points="534.77 76.58 556.99 79.98 540.66 89.41 534.77 76.58"/><polygon class="cls-19" points="156.13 442.07 150.35 427.41 161.9 434.07 156.13 442.07"/><polygon class="cls-20" points="156.13 278.13 150.35 263.47 161.9 270.14 156.13 278.13"/><ellipse class="cls-21" cx="639.67" cy="527.66" rx="12.4" ry="21.47" transform="translate(108.55 1164.47) rotate(-89.69)"/><ellipse class="cls-21" cx="639.67" cy="527.66" rx="7.67" ry="13.28" transform="translate(108.55 1164.47) rotate(-89.69)"/><ellipse class="cls-21" cx="639.67" cy="527.66" rx="3.97" ry="6.88" transform="translate(108.55 1164.47) rotate(-89.69)"/><ellipse class="cls-21" cx="301.49" cy="556.02" rx="12.4" ry="21.47" transform="translate(-256.15 854.5) rotate(-89.69)"/><ellipse class="cls-21" cx="301.49" cy="556.02" rx="7.67" ry="13.28" transform="translate(-256.15 854.5) rotate(-89.69)"/><ellipse class="cls-21" cx="301.49" cy="556.02" rx="3.97" ry="6.88" transform="translate(-256.15 854.5) rotate(-89.69)"/><path class="cls-22" d="M187.27,312.58V426.66c0,2.06-.7,3.52-1.81,4.11l-4.7,2.75-5.18-15L137,306.66l-9.88-28.6,4.37-2.55.17-.1a3.18,3.18,0,0,1,3.33.24l47.28,27.27C185,304.56,187.27,308.87,187.27,312.58Z"/><path class="cls-23" d="M177.52,433.22l-47.28-27.3c-2.79-1.6-5.05-5.92-5.05-9.63V282.21c0-3.72,2.26-5.42,5.05-3.81l47.28,27.27c2.78,1.61,5,5.92,5,9.63V429.41C182.56,433.12,180.3,434.83,177.52,433.22Z"/><path class="cls-24" d="M160.48,418.25l-13.21-7.63a2.8,2.8,0,0,1-1.16-2.21h0c0-.85.54-1.24,1.16-.87l13.21,7.63a2.74,2.74,0,0,1,1.16,2.21h0C161.64,418.23,161.12,418.62,160.48,418.25Z"/><polygon class="cls-25" points="182.56 423.74 125.19 390.61 125.19 288.5 182.56 321.62 182.56 423.74"/><ellipse class="cls-26" cx="153.88" cy="383.89" rx="6.29" ry="10.89" transform="translate(-172.71 130.13) rotate(-30.31)"/><polygon class="cls-23" points="153.72 352.71 133.81 341.22 133.81 337.34 153.72 348.83 153.72 352.71"/><polygon class="cls-23" points="171.05 362.72 158.14 355.27 158.14 351.38 171.05 358.83 171.05 362.72"/><polygon class="cls-23" points="167 367.66 137.86 350.83 137.86 346.94 167 363.77 167 367.66"/><text class="cls-27" transform="matrix(0.87, 0.5, 0, 1, 149.8, 384.03)">OK</text><path class="cls-28" d="M153.88,319.9c-.63-.37-1.13-.08-1.13.64v.6c-1.94-.54-3.38.64-3.38,3.05v5.17l-1.5.87v.86l12,7v-.86l-1.51-2.59v-5.17a10.09,10.09,0,0,0-3.38-6.95v-.6A2.47,2.47,0,0,0,153.88,319.9Zm-1.5,14.64a3.29,3.29,0,0,0,1.5,2.59c.83.48,1.5.1,1.5-.86Z"/><polygon class="cls-29" points="403.83 168.03 483.61 123.41 617.79 200.88 539.3 246.19 403.83 168.03"/><polygon class="cls-30" points="539.3 246.19 617.76 200.94 617.76 365.19 539.3 410.43 539.3 246.19"/><path class="cls-31" d="M554.94,302.19,589,282.51H604l-.36.23-48.67,28.09c-1.78,1-3.24-.06-3.24-2.45h0A7.8,7.8,0,0,1,554.94,302.19Z"/><path class="cls-32" d="M603.6,274.08c1.78-1,3.24.06,3.24,2.45h0a7.91,7.91,0,0,1-2.88,6H589Z"/><path class="cls-31" d="M554.94,281.71,589,262H604l-.36.23-48.67,28.1c-1.78,1-3.24-.07-3.24-2.45h0A7.82,7.82,0,0,1,554.94,281.71Z"/><path class="cls-32" d="M603.6,253.62c1.78-1,3.24.06,3.24,2.45h0a8,8,0,0,1-2.88,6H589Z"/><path class="cls-31" d="M554.94,261.24,589,241.56H604l-.36.24-48.67,28.08c-1.78,1-3.24-.05-3.24-2.44h0A7.77,7.77,0,0,1,554.94,261.24Z"/><path class="cls-32" d="M603.6,233.14c1.78-1,3.24.06,3.24,2.45h0a8,8,0,0,1-2.88,6H589Z"/><polygon class="cls-33" points="527.9 417.31 539.31 410.45 539.31 246.19 527.74 252.91 527.9 417.31"/><polygon class="cls-34" points="527.9 417.31 392.49 339.09 392.49 174.82 527.9 253.04 527.9 417.31"/><polygon class="cls-35" points="403.89 167.97 392.49 174.82 527.9 253.04 539.31 246.19 403.89 167.97"/><polygon class="cls-29" points="450.99 589.01 279.45 489.95 446.26 392.67 617.79 491.73 450.99 589.01"/><polygon class="cls-36" points="450.99 599.77 279.45 500.68 279.45 489.92 450.99 589.01 450.99 599.77"/><polygon class="cls-37" points="450.99 599.77 450.99 589.01 617.79 491.73 617.79 502.49 450.99 599.77"/><g class="cls-38"><line class="cls-39" x1="513.28" y1="382.96" x2="264.14" y2="526.8"/><line class="cls-39" x1="544.42" y1="400.94" x2="295.28" y2="544.78"/><line class="cls-39" x1="575.56" y1="418.92" x2="326.43" y2="562.76"/><line class="cls-39" x1="606.7" y1="436.9" x2="357.57" y2="580.74"/><line class="cls-39" x1="637.85" y1="454.88" x2="388.71" y2="598.72"/></g><polygon class="cls-29" points="417.36 538.84 364.56 508.34 415.9 478.39 468.71 508.89 417.36 538.84"/><polygon class="cls-40" points="417.36 548.74 364.56 518.24 364.56 508.34 417.36 538.85 417.36 548.74"/><polygon class="cls-41" points="417.36 548.74 417.36 538.85 468.71 508.9 468.71 518.79 417.36 548.74"/><path class="cls-42" d="M429.64,493.48h0V466.6H403.51v26.91h0c0,1.92,1.31,3.84,3.85,5.31,5.12,3,13.37,3,18.48,0C428.4,497.36,429.66,495.42,429.64,493.48Z"/><path class="cls-42" d="M418.79,507.25h0v-11h-4.42v11h0a1.12,1.12,0,0,0,.65.9,3.43,3.43,0,0,0,3.12,0A1.1,1.1,0,0,0,418.79,507.25Z"/><ellipse class="cls-42" cx="416.58" cy="473.52" rx="7.55" ry="13.06" transform="translate(-59.19 887.53) rotate(-89.69)"/><path class="cls-43" d="M456,470.7h0V389.53l-78.93-.11V470.7h0c.06,5.81,3.94,11.62,11.64,16.05,15.46,8.92,40.45,9,55.82.09C452.29,482.41,456.11,476.56,456,470.7Z"/><ellipse class="cls-32" cx="416.58" cy="389.53" rx="22.79" ry="39.47" transform="translate(24.8 804) rotate(-89.69)"/><path class="cls-44" d="M480.17,422.79h0V292L353,291.82v131h0c.1,9.36,6.36,18.72,18.77,25.88,24.91,14.38,65.18,14.44,89.94.16C474.12,441.66,480.27,432.23,480.17,422.79Z"/><path class="cls-45" d="M487.91,375.66h0V338.57H447.09a119.73,119.73,0,0,0-61.81,0h-40v35.19c-.76,11.12,6.24,22.41,21,30.92,27.95,16.14,73.12,16.22,100.89.19C481.12,396.82,488,386.24,487.91,375.66Z"/><ellipse class="cls-46" cx="416.58" cy="338.58" rx="41.19" ry="71.34" transform="translate(75.76 753.32) rotate(-89.69)"/><path class="cls-47" d="M480.17,335.36V292L353,291.82v43.55c.1,9.36,6.36,18.72,18.77,25.88,24.91,14.38,65.18,14.44,89.94.16C474.12,354.23,480.27,344.8,480.17,335.36Z"/><ellipse class="cls-48" cx="416.58" cy="292" rx="36.72" ry="63.6" transform="translate(122.33 707) rotate(-89.69)"/><path class="cls-49" d="M440.8,296.6h0V246.8l-48.45-.07v49.89h0c0,3.56,2.42,7.13,7.15,9.86,9.49,5.47,24.82,5.5,34.25,0C438.49,303.79,440.84,300.2,440.8,296.6Z"/><ellipse class="cls-50" cx="416.58" cy="246.79" rx="13.98" ry="24.22" transform="translate(167.54 662.03) rotate(-89.69)"/><path class="cls-42" d="M425.62,150.71c0-1.34-.9-2.68-2.67-3.69a14.12,14.12,0,0,0-12.8,0c-1.76,1-2.64,2.37-2.62,3.71h0v96h0c0,1.33.9,2.67,2.67,3.68a14.1,14.1,0,0,0,12.79,0c1.77-1,2.65-2.37,2.63-3.71h0Z"/><ellipse class="cls-42" cx="416.59" cy="150.66" rx="5.22" ry="9.04" transform="translate(263.68 566.43) rotate(-89.69)"/><ellipse class="cls-29" cx="416.59" cy="150.66" rx="3.1" ry="5.36" transform="translate(263.68 566.43) rotate(-89.69)"/><path class="cls-51" d="M531.43,40.08v.62c-.21,5-3.64,10.06-10.3,13.91-13.8,8-36.24,7.93-50.13-.09-6.53-3.74-10-8.64-10.42-13.56h0v-2.1a35.44,35.44,0,0,1,70.85,1.24Z"/><path class="cls-52" d="M509,55.42c0,1,0,2.07-.08,3.09-1.13,7.21-6.46,14.23-16,19.73-21.72,12.54-57,12.48-78.88-.14-10.24-5.91-15.71-13.52-16.4-21.24h0V55.42c0-.69,0-1.37,0-2.05a55.68,55.68,0,0,1,111.24-.48C509,53.74,509,54.57,509,55.42Z"/><path class="cls-53" d="M442.9,79v.16c0,4.44-2.95,8.87-8.8,12.24-11.79,6.81-31,6.78-42.82-.07-5.88-3.41-8.89-7.87-8.94-12.33v-.14A30.28,30.28,0,1,1,442.9,79Z"/><line class="cls-54" x1="301.48" y1="556" x2="301.48" y2="407.4"/><polyline class="cls-54" points="569.86 180.8 639.65 221.09 639.65 527.65"/><polygon class="cls-55" points="567.82 179.64 590.03 183.04 573.7 192.47 567.82 179.64"/></g></g></g></g></g></svg>