<svg xmlns="http://www.w3.org/2000/svg" viewBox="0 0 900 269.04"><defs><style>.cls-1{fill:#e07f00;}</style></defs><g id="Layer_2" data-name="Layer 2"><g id="Layer_1-2" data-name="Layer 1"><path class="cls-1" d="M18.18,240.44c0-5.34,4.46-10.24,9.8-10.24a9.28,9.28,0,0,1,8.9,5.79,12.9,12.9,0,0,1,.9,4,9.89,9.89,0,0,1-9.8,9.79,9.51,9.51,0,0,1-9.8-9.35h0M182.49,18.7c5.78,0,10.24,4.45,9.79,10.24h0a9.8,9.8,0,1,1-19.59,0c-.45-5.79,4-10.24,9.8-10.24h0M37.33,213.28V168.75l147.83-50.31a9.69,9.69,0,0,0,6.23-8.91V55.66A28.55,28.55,0,0,0,209.2,19.59C204.3,4.45,188.27-3.12,173.14,1.78s-22.71,20.93-17.82,36.07c2.68,8.46,9.36,14.69,17.82,17.81v47.2L25.31,153.17a9.09,9.09,0,0,0-6.24,8.91v51.2A28.43,28.43,0,0,0,1.71,249.79c4,11.13,14.69,19.15,26.71,19.15a28.53,28.53,0,0,0,28.06-29.39c0-11.58-8-22.26-19.15-26.27"/><path class="cls-1" d="M38.22,28.5a9.8,9.8,0,1,1-9.8-9.8,9.88,9.88,0,0,1,9.8,9.8m67.24,41a10.24,10.24,0,1,1,0,20.48h-.9a9.73,9.73,0,0,1-8.9-11.13,11.85,11.85,0,0,1,3.12-6.23,8,8,0,0,1,6.68-3.12M19.07,55.66v49.87a9.52,9.52,0,0,0,3.57,7.57A7.79,7.79,0,0,0,28,114.88a5.59,5.59,0,0,0,2.67-.45L82.3,96.62a27.4,27.4,0,0,0,22.26,11.13A28.79,28.79,0,0,0,134,79.7c.45-15.58-12.47-28.94-28-29.39A28.81,28.81,0,0,0,76.51,78.37v.44L36.88,92.17v-37A28.74,28.74,0,0,0,54.25,18.26C50.69,8,40,.45,28,0A28.72,28.72,0,0,0,.37,29.39a27.85,27.85,0,0,0,18.7,26.27"/><path class="cls-1" d="M172.24,240.44a13,13,0,0,1,.9-4c2.22-4.89,8-7.56,12.91-5.34a10.39,10.39,0,0,1,5.34,5.34,12.94,12.94,0,0,1,.89,4,9.88,9.88,0,0,1-9.79,9.8c-5.35,0-10.25-4.45-10.25-9.8m-66.78-38.29a10.24,10.24,0,1,1,0-20.48h.89a10.18,10.18,0,0,1,8.9,10.24,12.6,12.6,0,0,1-3.12,7.57,10.68,10.68,0,0,1-6.67,2.67m85.93,11.13V165.64a9.52,9.52,0,0,0-3.56-7.57,8.65,8.65,0,0,0-8-1.34l-51.65,17.81a27.41,27.41,0,0,0-22.26-11.13,28.73,28.73,0,1,0-1.34,57.44c15.59.45,28.95-12.47,29.39-28v-.45L173.58,179v34.73a28.44,28.44,0,1,0,18.26,53.87c15.13-4.9,22.7-20.92,17.81-36.06-3.57-8.91-9.8-15.59-18.26-18.26"/><path class="cls-1" d="M336.45,127.48a7.07,7.07,0,0,1-3.14,3.72,11.33,11.33,0,0,1-11.54,0,7.1,7.1,0,0,1-3.07-3.72L291.94,57.54a5,5,0,0,1,.88-4.47,8.34,8.34,0,0,1,5.26-3.21,8.83,8.83,0,0,1,5.94.5,6.33,6.33,0,0,1,3.48,3.4l20.07,57.72,19.66-57.59a5.83,5.83,0,0,1,3.35-3.4,9.24,9.24,0,0,1,6.08-.51,8,8,0,0,1,5.18,3.22,5.12,5.12,0,0,1,.82,4.47Z"/><path class="cls-1" d="M409.9,101.4,385.19,59.69a4.54,4.54,0,0,1-.82-4.35,6.92,6.92,0,0,1,3.55-4.22,9.53,9.53,0,0,1,6.14-1.33A7,7,0,0,1,398.57,52l19.66,35.66L438,52a7,7,0,0,1,4.51-2.21,9.54,9.54,0,0,1,6.14,1.33,6.67,6.67,0,0,1,3.48,4.22,4.91,4.91,0,0,1-.75,4.35l-25.67,43.09v24a5.32,5.32,0,0,1-2.11,4.09,8.18,8.18,0,0,1-5.53,1.83,9.07,9.07,0,0,1-6-1.83,5.27,5.27,0,0,1-2.19-4.09Zm9.7-60.62a4.81,4.81,0,0,1-3.76-.31,6.65,6.65,0,0,1-3.21-3,4.56,4.56,0,0,1-.34-4A4.22,4.22,0,0,1,414.55,31L433.8,21.5a6,6,0,0,1,5.32.19,8.37,8.37,0,0,1,3.62,3.59,7.28,7.28,0,0,1,.68,4.79,4.88,4.88,0,0,1-3.34,3.66Z"/><path class="cls-1" d="M479.4,56.79a5.25,5.25,0,0,1,2.25-4.1,9.12,9.12,0,0,1,5.94-1.83h19.25a59.28,59.28,0,0,1,15.57,1.77,27.41,27.41,0,0,1,10.31,5,18.88,18.88,0,0,1,5.66,7.68,26.89,26.89,0,0,1,1.78,10v.88a18.76,18.76,0,0,1-3.21,11q-3.21,4.61-11.26,7.37l15.15,28.61a3.91,3.91,0,0,1,.41,4.35A9.29,9.29,0,0,1,537,131.9a8.81,8.81,0,0,1-5.87.69,6.42,6.42,0,0,1-4.1-2.58L511.76,99.76a21.2,21.2,0,0,1-2.32.13H495.38v27.22a5,5,0,0,1-2.12,4,8.81,8.81,0,0,1-5.67,1.7,8.59,8.59,0,0,1-5.94-2,5.77,5.77,0,0,1-2.25-4.28Zm16,6.68V87.79h11.46q9.29,0,13.32-2.9a8.81,8.81,0,0,0,4-7.44V75.06a10.15,10.15,0,0,0-4-8.51q-4-3.07-13.32-3.08Z"/><path class="cls-1" d="M569.38,82.37a39.81,39.81,0,0,1,2-12.92,27.87,27.87,0,0,1,6.28-10.39,29.47,29.47,0,0,1,10.72-6.94,42.33,42.33,0,0,1,15.36-2.52,42.78,42.78,0,0,1,15.5,2.52,30.2,30.2,0,0,1,10.79,6.94,27.51,27.51,0,0,1,6.35,10.39,39.81,39.81,0,0,1,2,12.92V100a39.81,39.81,0,0,1-2,12.92,27.55,27.55,0,0,1-6.35,10.4,30,30,0,0,1-10.79,6.93,42.78,42.78,0,0,1-15.5,2.52,42.33,42.33,0,0,1-15.36-2.52,29.33,29.33,0,0,1-10.72-6.93,27.91,27.91,0,0,1-6.28-10.4,39.81,39.81,0,0,1-2-12.92Zm15.7,17.77q0,10.33,5,14.68t13.65,4.35q8.88,0,13.79-4.35t4.92-14.68V82.37q0-10.34-4.92-14.68t-13.79-4.35q-8.6,0-13.65,4.35t-5,14.68Z"/><path class="cls-1" d="M670.55,56.79a5.25,5.25,0,0,1,2.25-4.1,9.12,9.12,0,0,1,5.94-1.83h20.48a48,48,0,0,1,14.41,1.89,28.36,28.36,0,0,1,9.69,5,19.39,19.39,0,0,1,5.46,7.12,20.68,20.68,0,0,1,1.71,8.26v.88a17,17,0,0,1-2.8,9.71q-2.81,4.15-9.35,6.67,8.73,2.4,11.94,7.19a19.44,19.44,0,0,1,3.21,11.09v.88a24.18,24.18,0,0,1-1.43,8.25,16.61,16.61,0,0,1-5,7,26.47,26.47,0,0,1-9.63,4.85,54.24,54.24,0,0,1-15.36,1.83H678.74a8.25,8.25,0,0,1-5.94-2.14,6.17,6.17,0,0,1-2.25-4.42Zm16,6.68v21.8h15.57q6.27-.51,9.42-3.09a8.2,8.2,0,0,0,3.14-6.62V73.17a8.15,8.15,0,0,0-3.82-7.12q-3.83-2.58-11.61-2.58Zm0,56h15.57q7.78,0,11.6-2.77a8.63,8.63,0,0,0,3.83-7.31v-1.89a9.45,9.45,0,0,0-3.62-7.56q-3.61-3-11.81-3H686.52Z"/><path class="cls-1" d="M764.21,55.53a5.23,5.23,0,0,1,2.26-4.1,9.11,9.11,0,0,1,5.93-1.83,8.59,8.59,0,0,1,5.06,1.45,6.31,6.31,0,0,1,2.59,3.34l36.73,49.53V55.53a5.3,5.3,0,0,1,2.18-4.1,9.08,9.08,0,0,1,6-1.83,8.14,8.14,0,0,1,5.53,1.83,5.35,5.35,0,0,1,2.12,4.1v71.33A5.35,5.35,0,0,1,830.5,131a8.14,8.14,0,0,1-5.53,1.83,10.43,10.43,0,0,1-5-1.07,6.24,6.24,0,0,1-2.8-2.84l-.41-.63-36.59-49v47.64a5.35,5.35,0,0,1-2.12,4.09,8.37,8.37,0,0,1-5.67,1.83,9.11,9.11,0,0,1-5.93-1.83,5.23,5.23,0,0,1-2.26-4.09Z"/><path class="cls-1" d="M866.75,55.53a5.29,5.29,0,0,1,2.19-4.1,9,9,0,0,1,6-1.83,8.43,8.43,0,0,1,5.6,1.83,5.29,5.29,0,0,1,2.19,4.1v71.2a5.27,5.27,0,0,1-2.19,4.09,8.43,8.43,0,0,1-5.6,1.83,9,9,0,0,1-6-1.83,5.27,5.27,0,0,1-2.19-4.09ZM876,40.66a4.82,4.82,0,0,1-3.76-.32,6.65,6.65,0,0,1-3.21-3,4.56,4.56,0,0,1-.34-4A4.25,4.25,0,0,1,871,30.83l19.26-9.45a6,6,0,0,1,5.32.18,8.44,8.44,0,0,1,3.62,3.6,7.25,7.25,0,0,1,.68,4.78,4.87,4.87,0,0,1-3.34,3.66Z"/><path class="cls-1" d="M297.53,160.33a5.26,5.26,0,0,1,2.26-4.1,9.12,9.12,0,0,1,5.94-1.83H325a59.2,59.2,0,0,1,15.56,1.77,27.32,27.32,0,0,1,10.31,5,19,19,0,0,1,5.67,7.69,27.05,27.05,0,0,1,1.77,10v.88a18.85,18.85,0,0,1-3.2,11q-3.21,4.61-11.27,7.37L359,226.74a3.93,3.93,0,0,1,.41,4.35,9.21,9.21,0,0,1-4.24,4.34,8.75,8.75,0,0,1-5.87.7,6.45,6.45,0,0,1-4.09-2.59l-15.3-30.24a21.28,21.28,0,0,1-2.32.12H313.51v27.23a5,5,0,0,1-2.12,4,8.8,8.8,0,0,1-5.66,1.7,8.59,8.59,0,0,1-5.94-2,5.78,5.78,0,0,1-2.26-4.29Zm16,6.67v24.33H325q9.28,0,13.31-2.9a8.8,8.8,0,0,0,4-7.44V178.6a10.13,10.13,0,0,0-4-8.51Q334.27,167,325,167Z"/><path class="cls-1" d="M440.83,156.23a6.45,6.45,0,0,1,2,5,6.12,6.12,0,0,1-2,4.72,8.25,8.25,0,0,1-5.8,1.83H404.44v19.79h20.48q4,0,5.94,1.82a6.45,6.45,0,0,1,2,5,6.14,6.14,0,0,1-2,4.73c-1.32,1.22-3.3,1.82-5.94,1.82H404.44v20.8H435a8.25,8.25,0,0,1,5.8,1.83,6.41,6.41,0,0,1,2,5,6.14,6.14,0,0,1-2,4.73,8.25,8.25,0,0,1-5.8,1.83H396.66a9.12,9.12,0,0,1-5.94-1.83,5.25,5.25,0,0,1-2.25-4.1v-68.8a5.25,5.25,0,0,1,2.25-4.1,9.12,9.12,0,0,1,5.94-1.83H435A8.25,8.25,0,0,1,440.83,156.23Z"/><path class="cls-1" d="M472.85,160.33a5.25,5.25,0,0,1,2.25-4.1A9.12,9.12,0,0,1,481,154.4h17.89a49,49,0,0,1,14.88,2A28.93,28.93,0,0,1,524.19,162a21.65,21.65,0,0,1,6,8.38,27.46,27.46,0,0,1,1.91,10.33v1.39a24.49,24.49,0,0,1-1.77,9.2,20.19,20.19,0,0,1-5.74,7.81,29.83,29.83,0,0,1-10.24,5.48,49.4,49.4,0,0,1-15.42,2.08H488.82v23.69a5.34,5.34,0,0,1-2.11,4.1,8.38,8.38,0,0,1-5.67,1.83,8.25,8.25,0,0,1-5.94-2.15,6.13,6.13,0,0,1-2.25-4.41Zm16,6.67v27.6h10.11a26.73,26.73,0,0,0,7.78-1A17.06,17.06,0,0,0,512.1,191a10.47,10.47,0,0,0,3.14-3.78,10.17,10.17,0,0,0,1-4.41v-2.9a11.88,11.88,0,0,0-4.1-9.14c-2.73-2.47-7.15-3.72-13.24-3.72Z"/><path class="cls-1" d="M561.46,185.91a39.54,39.54,0,0,1,2-12.92,27.73,27.73,0,0,1,6.28-10.4,29.24,29.24,0,0,1,10.72-6.93,42.33,42.33,0,0,1,15.36-2.52,42.76,42.76,0,0,1,15.49,2.52,30,30,0,0,1,10.79,6.93A27.5,27.5,0,0,1,628.5,173a39.81,39.81,0,0,1,2,12.92v17.64a39.81,39.81,0,0,1-2,12.92,27.43,27.43,0,0,1-6.35,10.4,30,30,0,0,1-10.79,6.93,42.76,42.76,0,0,1-15.49,2.52,42.33,42.33,0,0,1-15.36-2.52,29.24,29.24,0,0,1-10.72-6.93,27.65,27.65,0,0,1-6.28-10.4,39.54,39.54,0,0,1-2-12.92Zm15.7,17.77q0,10.33,5.05,14.68t13.66,4.35q8.86,0,13.79-4.35t4.91-14.68V185.91q0-10.33-4.91-14.68t-13.79-4.35q-8.61,0-13.66,4.35t-5.05,14.68Z"/><path class="cls-1" d="M663,160.33a5.25,5.25,0,0,1,2.25-4.1,9.16,9.16,0,0,1,5.94-1.83h19.25a59.28,59.28,0,0,1,15.57,1.77,27.4,27.4,0,0,1,10.31,5,19.09,19.09,0,0,1,5.67,7.69,27.05,27.05,0,0,1,1.77,10v.88a18.79,18.79,0,0,1-3.21,11q-3.21,4.61-11.26,7.37l15.15,28.61a3.91,3.91,0,0,1,.41,4.35,9.23,9.23,0,0,1-4.23,4.34,8.75,8.75,0,0,1-5.87.7,6.47,6.47,0,0,1-4.1-2.59L695.4,203.3a21.28,21.28,0,0,1-2.32.12H679v27.23a5,5,0,0,1-2.12,4,8.81,8.81,0,0,1-5.67,1.7,8.62,8.62,0,0,1-5.94-2A5.77,5.77,0,0,1,663,230ZM679,167v24.33h11.46q9.28,0,13.32-2.9a8.82,8.82,0,0,0,4-7.44V178.6a10.15,10.15,0,0,0-4-8.51q-4-3.09-13.32-3.09Z"/><path class="cls-1" d="M803.27,154.4q4,0,5.94,1.83a6.48,6.48,0,0,1,2,5,6.15,6.15,0,0,1-2,4.72q-2,1.83-5.94,1.83H785.38v62.63a5.35,5.35,0,0,1-2.12,4.1,8.36,8.36,0,0,1-5.66,1.83,9.08,9.08,0,0,1-6-1.83,5.27,5.27,0,0,1-2.18-4.1V167.76H753.29a8.36,8.36,0,0,1-5.66-1.83,5.91,5.91,0,0,1-2.12-4.72,6.22,6.22,0,0,1,2.12-5,8.36,8.36,0,0,1,5.66-1.83Z"/></g></g></svg>