<svg xmlns="http://www.w3.org/2000/svg" viewBox="0 0 351.07 106.92"><defs><style>.cls-1{fill:#de8026;}</style></defs><g id="Layer_2" data-name="Layer 2"><g id="Artwork"><g id="Front"><path class="cls-1" d="M7.23,95.56a4.08,4.08,0,0,1,3.89-4.07,3.69,3.69,0,0,1,3.54,2.3A5.06,5.06,0,0,1,15,95.38a3.93,3.93,0,0,1-3.89,3.89,3.78,3.78,0,0,1-3.89-3.71h0M72.52,7.43a3.77,3.77,0,0,1,3.9,4.07h0a3.9,3.9,0,1,1-7.79,0,3.76,3.76,0,0,1,3.89-4.07h0M14.84,84.76V67.07l58.75-20a3.85,3.85,0,0,0,2.47-3.54V22.12A11.34,11.34,0,0,0,83.14,7.79,11.3,11.3,0,0,0,61.73,15a11.28,11.28,0,0,0,7.08,7.08V40.88l-58.75,20a3.62,3.62,0,0,0-2.48,3.54V84.76A11.3,11.3,0,0,0,.68,99.27a11.45,11.45,0,0,0,10.62,7.61,11.38,11.38,0,0,0,3.54-22.12"/><path class="cls-1" d="M15.19,11.33a3.9,3.9,0,1,1-3.89-3.9,3.93,3.93,0,0,1,3.89,3.9M41.91,27.61a4.07,4.07,0,0,1,0,8.14h-.35A3.87,3.87,0,0,1,38,31.32a4.69,4.69,0,0,1,1.24-2.48,3.17,3.17,0,0,1,2.65-1.23M7.58,22.12V41.94A3.77,3.77,0,0,0,9,45a3.07,3.07,0,0,0,2.12.7,2.32,2.32,0,0,0,1.06-.17L32.71,38.4a10.9,10.9,0,0,0,8.85,4.42A11.44,11.44,0,0,0,53.24,31.68,11.56,11.56,0,0,0,42.09,20,11.44,11.44,0,0,0,30.41,31.14v.18L14.66,36.63V21.94a11.41,11.41,0,0,0,6.9-14.68A11.49,11.49,0,0,0,11.12,0a11.41,11.41,0,0,0-11,11.68A11.06,11.06,0,0,0,7.58,22.12"/><path class="cls-1" d="M68.45,95.56a5.14,5.14,0,0,1,.36-1.6,4,4,0,0,1,5.13-2.12A4.12,4.12,0,0,1,76.06,94a5.14,5.14,0,0,1,.36,1.6,3.93,3.93,0,0,1-3.9,3.89,4.09,4.09,0,0,1-4.07-3.89M41.91,80.34a4.07,4.07,0,1,1,0-8.14h.35a4,4,0,0,1,3.54,4.07,5,5,0,0,1-1.24,3,4.28,4.28,0,0,1-2.65,1.06m34.15,4.42V65.83a3.79,3.79,0,0,0-1.41-3,3.42,3.42,0,0,0-3.19-.53L50.93,69.37a10.89,10.89,0,0,0-8.84-4.43A11.42,11.42,0,1,0,53.24,76.62v-.17L69,71.14v13.8a11.3,11.3,0,0,0,7.26,21.41A11.21,11.21,0,0,0,83.32,92a11.82,11.82,0,0,0-7.26-7.26"/><path class="cls-1" d="M136.6,17.07a2.61,2.61,0,0,1,.8,2,2.47,2.47,0,0,1-.8,1.9,3.33,3.33,0,0,1-2.34.74H122.49V30.2h8.31a3.37,3.37,0,0,1,2.34.74,2.59,2.59,0,0,1,.79,2,2.48,2.48,0,0,1-.79,1.91,3.37,3.37,0,0,1-2.34.74h-8.31V47a2.16,2.16,0,0,1-.86,1.65,3.36,3.36,0,0,1-2.28.74,3.67,3.67,0,0,1-2.39-.74,2.1,2.1,0,0,1-.91-1.65V18.72a2.1,2.1,0,0,1,.91-1.65,3.67,3.67,0,0,1,2.39-.73h14.91A3.33,3.33,0,0,1,136.6,17.07Z"/><path class="cls-1" d="M172.34,46.05a2,2,0,0,1-.33,1.8,3.24,3.24,0,0,1-2.09,1.3,3.73,3.73,0,0,1-2.45-.21,2.3,2.3,0,0,1-1.34-1.37l-2-5.89h-12l-2,5.94a2.54,2.54,0,0,1-1.4,1.37,3.58,3.58,0,0,1-2.39.21,3.34,3.34,0,0,1-2.12-1.3,2,2,0,0,1-.36-1.8L154.62,18a3,3,0,0,1,1.24-1.5,4.61,4.61,0,0,1,4.65,0,2.94,2.94,0,0,1,1.27,1.5ZM153.85,36.7h8.59L158.2,24.11Z"/><path class="cls-1" d="M182,28.17a13.76,13.76,0,0,1,.83-4.75,10.86,10.86,0,0,1,2.48-3.94,12,12,0,0,1,4.07-2.66,14.56,14.56,0,0,1,5.56-1,16.44,16.44,0,0,1,4,.45A13.26,13.26,0,0,1,202,17.5a6.83,6.83,0,0,1,2.09,1.73,3.25,3.25,0,0,1,.75,2,2,2,0,0,1-.66,1.58,2.34,2.34,0,0,1-1.55.56,5.53,5.53,0,0,1-1.65-.23,9.21,9.21,0,0,1-1.65-.79,10.27,10.27,0,0,0-1.9-.86,7.93,7.93,0,0,0-2.61-.36,6.73,6.73,0,0,0-4.54,1.63,6.27,6.27,0,0,0-1.9,5v9.6a6.22,6.22,0,0,0,1.9,5,6.86,6.86,0,0,0,4.54,1.6,11.65,11.65,0,0,0,2.56-.23,7.57,7.57,0,0,0,1.84-.69c.41-.23.75-.43,1.05-.58a7.48,7.48,0,0,1,.8-.36,4.44,4.44,0,0,1,.74-.18,7.61,7.61,0,0,1,.88,0,1.94,1.94,0,0,1,2.15,2,3.27,3.27,0,0,1-.75,2A6.5,6.5,0,0,1,202,47.7a13.26,13.26,0,0,1-3.16,1.19,15.94,15.94,0,0,1-4,.46,14.56,14.56,0,0,1-5.56-1,11.91,11.91,0,0,1-4.07-2.67,10.82,10.82,0,0,1-2.48-3.91A13.67,13.67,0,0,1,182,37Z"/><path class="cls-1" d="M236,16.34a3.42,3.42,0,0,1,2.39.73,2.61,2.61,0,0,1,.8,2,2.47,2.47,0,0,1-.8,1.9,3.42,3.42,0,0,1-2.39.74h-7.21V47a2.17,2.17,0,0,1-.85,1.65,3.39,3.39,0,0,1-2.29.74,3.66,3.66,0,0,1-2.42-.74,2.12,2.12,0,0,1-.88-1.65V21.72h-6.49a3.39,3.39,0,0,1-2.29-.74,2.38,2.38,0,0,1-.85-1.9,2.51,2.51,0,0,1,.85-2,3.38,3.38,0,0,1,2.29-.73Z"/><path class="cls-1" d="M248.89,29a16,16,0,0,1,.82-5.2,11.14,11.14,0,0,1,2.54-4.19,11.67,11.67,0,0,1,4.32-2.8,19.63,19.63,0,0,1,12.43,0,12.14,12.14,0,0,1,4.35,2.8,10.93,10.93,0,0,1,2.56,4.19,16,16,0,0,1,.82,5.2v7.11a16,16,0,0,1-.82,5.21,10.93,10.93,0,0,1-2.56,4.19A12,12,0,0,1,269,48.33a19.44,19.44,0,0,1-12.43,0,11.53,11.53,0,0,1-4.32-2.79,11.14,11.14,0,0,1-2.54-4.19,16,16,0,0,1-.82-5.21Zm6.33,7.16q0,4.17,2,5.92a8.17,8.17,0,0,0,5.51,1.75,8.08,8.08,0,0,0,5.55-1.75q2-1.76,2-5.92V29c0-2.77-.66-4.75-2-5.91a8.09,8.09,0,0,0-5.55-1.76,8.17,8.17,0,0,0-5.51,1.76c-1.35,1.16-2,3.14-2,5.91Z"/><path class="cls-1" d="M289.83,18.72a2.1,2.1,0,0,1,.91-1.65,3.67,3.67,0,0,1,2.39-.73h7.76a23.64,23.64,0,0,1,6.27.71,11.06,11.06,0,0,1,4.16,2,7.66,7.66,0,0,1,2.28,3.1,10.81,10.81,0,0,1,.72,4v.35A7.54,7.54,0,0,1,313,31a8.75,8.75,0,0,1-4.54,3l6.11,11.53a1.56,1.56,0,0,1,.17,1.75A3.69,3.69,0,0,1,313.05,49a3.46,3.46,0,0,1-2.36.28,2.58,2.58,0,0,1-1.66-1L302.87,36a6.87,6.87,0,0,1-.93.05h-5.67v11a2,2,0,0,1-.85,1.6,3.53,3.53,0,0,1-2.29.69,3.44,3.44,0,0,1-2.39-.81,2.32,2.32,0,0,1-.91-1.73Zm6.44,2.69v9.81h4.62q3.74,0,5.37-1.17a3.56,3.56,0,0,0,1.62-3v-1a4.08,4.08,0,0,0-1.62-3.43q-1.63-1.25-5.37-1.25Z"/><path class="cls-1" d="M334,36.7,324,19.89a1.84,1.84,0,0,1-.33-1.75,2.8,2.8,0,0,1,1.43-1.7,3.88,3.88,0,0,1,2.48-.54,2.87,2.87,0,0,1,1.82.89l7.92,14.38,8-14.38a2.84,2.84,0,0,1,1.82-.89,3.85,3.85,0,0,1,2.47.54,2.65,2.65,0,0,1,1.4,1.7,2,2,0,0,1-.3,1.75L340.35,37.26v9.65a2.16,2.16,0,0,1-.86,1.65,3.3,3.3,0,0,1-2.23.74,3.68,3.68,0,0,1-2.42-.74,2.15,2.15,0,0,1-.88-1.65Z"/><path class="cls-1" d="M115.94,60.45a2.1,2.1,0,0,1,.91-1.65,3.67,3.67,0,0,1,2.39-.74H127a23.61,23.61,0,0,1,6.27.72,11.06,11.06,0,0,1,4.16,2,7.75,7.75,0,0,1,2.28,3.1,10.81,10.81,0,0,1,.72,4v.35a7.54,7.54,0,0,1-1.3,4.45,8.87,8.87,0,0,1-4.54,3l6.11,11.53a1.56,1.56,0,0,1,.17,1.75,3.74,3.74,0,0,1-1.71,1.75,3.46,3.46,0,0,1-2.36.28,2.55,2.55,0,0,1-1.66-1L129,77.77a6.87,6.87,0,0,1-.93,0h-5.67v11a2,2,0,0,1-.86,1.6,3.5,3.5,0,0,1-2.28.69,3.44,3.44,0,0,1-2.39-.81,2.33,2.33,0,0,1-.91-1.73Zm6.44,2.69V73H127q3.74,0,5.37-1.17a3.56,3.56,0,0,0,1.62-3v-1a4.08,4.08,0,0,0-1.62-3.43q-1.63-1.24-5.37-1.25Z"/><path class="cls-1" d="M173.69,58.8a2.61,2.61,0,0,1,.8,2,2.47,2.47,0,0,1-.8,1.9,3.33,3.33,0,0,1-2.34.74H159v8h8.25a3.42,3.42,0,0,1,2.39.74,2.57,2.57,0,0,1,.8,2,2.45,2.45,0,0,1-.8,1.9,3.42,3.42,0,0,1-2.39.74H159v8.38h12.32a3.33,3.33,0,0,1,2.34.73,2.61,2.61,0,0,1,.8,2,2.47,2.47,0,0,1-.8,1.9,3.29,3.29,0,0,1-2.34.74H155.89a3.61,3.61,0,0,1-2.39-.74,2.1,2.1,0,0,1-.91-1.65V60.45a2.1,2.1,0,0,1,.91-1.65,3.67,3.67,0,0,1,2.39-.74h15.46A3.33,3.33,0,0,1,173.69,58.8Z"/><path class="cls-1" d="M186.6,60.45a2.12,2.12,0,0,1,.9-1.65,3.72,3.72,0,0,1,2.4-.74h7.21a19.66,19.66,0,0,1,6,.82,11.57,11.57,0,0,1,4.19,2.26,8.8,8.8,0,0,1,2.42,3.38,11.15,11.15,0,0,1,.77,4.16v.56a9.8,9.8,0,0,1-.72,3.71,8.19,8.19,0,0,1-2.31,3.15,12,12,0,0,1-4.13,2.2,19.88,19.88,0,0,1-6.21.84H193v9.55a2.14,2.14,0,0,1-.85,1.65,3.83,3.83,0,0,1-4.68-.12,2.5,2.5,0,0,1-.9-1.78ZM193,63.14V74.27h4.08a10.7,10.7,0,0,0,3.13-.41,6.83,6.83,0,0,0,2.18-1.07,4.21,4.21,0,0,0,1.26-1.52,4,4,0,0,0,.41-1.78V68.32a4.79,4.79,0,0,0-1.65-3.68q-1.65-1.5-5.33-1.5Z"/><path class="cls-1" d="M222.31,70.76a16,16,0,0,1,.82-5.2,11.14,11.14,0,0,1,2.54-4.19,11.67,11.67,0,0,1,4.32-2.8,19.63,19.63,0,0,1,12.43,0,12.14,12.14,0,0,1,4.35,2.8,11.05,11.05,0,0,1,2.56,4.19,16,16,0,0,1,.82,5.2v7.11a16,16,0,0,1-.82,5.21,11.13,11.13,0,0,1-2.56,4.19,12,12,0,0,1-4.35,2.79,19.44,19.44,0,0,1-12.43,0,11.53,11.53,0,0,1-4.32-2.79,11.21,11.21,0,0,1-2.54-4.19,16,16,0,0,1-.82-5.21Zm6.33,7.16q0,4.17,2,5.92a9.61,9.61,0,0,0,11.06,0q2-1.75,2-5.92V70.76c0-2.77-.66-4.75-2-5.91a9.57,9.57,0,0,0-11.06,0c-1.35,1.16-2,3.14-2,5.91Z"/><path class="cls-1" d="M263.25,60.45a2.1,2.1,0,0,1,.91-1.65,3.67,3.67,0,0,1,2.39-.74h7.76a23.61,23.61,0,0,1,6.27.72,11.06,11.06,0,0,1,4.16,2,7.75,7.75,0,0,1,2.28,3.1,10.81,10.81,0,0,1,.72,4v.35a7.54,7.54,0,0,1-1.3,4.45,8.87,8.87,0,0,1-4.54,3L288,87.22a1.56,1.56,0,0,1,.17,1.75,3.74,3.74,0,0,1-1.71,1.75,3.48,3.48,0,0,1-2.37.28,2.55,2.55,0,0,1-1.65-1l-6.16-12.19a6.87,6.87,0,0,1-.93,0h-5.67v11a2,2,0,0,1-.86,1.6,3.5,3.5,0,0,1-2.28.69,3.44,3.44,0,0,1-2.39-.81,2.33,2.33,0,0,1-.91-1.73Zm6.44,2.69V73h4.62q3.74,0,5.37-1.17a3.56,3.56,0,0,0,1.62-3v-1a4.08,4.08,0,0,0-1.62-3.43q-1.64-1.24-5.37-1.25Z"/><path class="cls-1" d="M319.76,58.06a3.43,3.43,0,0,1,2.4.74,2.61,2.61,0,0,1,.8,2,2.47,2.47,0,0,1-.8,1.9,3.43,3.43,0,0,1-2.4.74h-7.2V88.69a2.16,2.16,0,0,1-.86,1.65,3.38,3.38,0,0,1-2.28.74,3.65,3.65,0,0,1-2.42-.74,2.12,2.12,0,0,1-.88-1.65V63.45h-6.5a3.38,3.38,0,0,1-2.28-.74,2.38,2.38,0,0,1-.85-1.9,2.51,2.51,0,0,1,.85-2,3.38,3.38,0,0,1,2.28-.74Z"/></g></g></g></svg>